<?xml version="1.0" encoding="UTF-8"?><svg id="Layer_2" xmlns="http://www.w3.org/2000/svg" viewBox="0 0 864 864"><g id="Layer_1-2"><rect width="864" height="864" fill="#af0"/><path d="M666.35,567.2H197.65c-53.02,0-96,44.21-96,98.74s42.98,98.74,96,98.74h468.71c53.02,0,96-44.21,96-98.74s-42.98-98.74-96-98.74Z"/><path d="M729.79,359.36l-225.26-225.26c-17.75-20.03-43.67-32.66-72.54-32.66-53.51,0-96.89,43.38-96.89,96.89,0,24.97,9.44,47.72,24.95,64.9l-.17.17,240.69,240.69.18-.18c17.17,15.46,39.89,24.87,64.81,24.87,53.51,0,96.89-43.38,96.89-96.89,0-28.87-12.63-54.79-32.66-72.54Z"/></g></svg>